# xmcd
#
# Track frame offsets:
#	150
#	9162
#	20694
#	32829
#	41205
#	53443
#	63694
#	70631
#	87516
#	98865
#
# Disc length: 1525 seconds
#
# Revision: 1
# Processed by: cddbd v1.5.2PL0 Copyright (c) Steve Scherf et al.
# Submitted via: audiograbber 1.83.01
#
DISCID=7d05f30a
DTITLE=Scuzz Twittly - Call Me Scuzz
DYEAR=2013
DGENRE=Country
TTITLE0=Call Me Scuzz
TTITLE1=In Cuntry
TTITLE2=Five Pound Sack
TTITLE3=Pink On The Inside
TTITLE4=Party Like Charlie Sheen
TTITLE5=I Like Boobs
TTITLE6=Eating Out
TTITLE7=A Bitch Named Sue
TTITLE8=In Love With Yer Giner
TTITLE9=The Snatches Of Natchez
EXTD=
EXTT0=
EXTT1=
EXTT2=
EXTT3=
EXTT4=
EXTT5=
EXTT6=
EXTT7=
EXTT8=
EXTT9=
PLAYORDER=
